<svg xmlns="http://www.w3.org/2000/svg" style="display: none;">
  <!-- Code Icon -->
  <symbol id="icon-code" viewBox="0 0 24 24">
    <path fill="currentColor" d="M9.4 16.6L4.8 12l4.6-4.6L8 6l-6 6 6 6 1.4-1.4zm5.2 0L19.2 12l-4.6-4.6L16 6l6 6-6 6-1.4-1.4z"/>
  </symbol>
  
  <!-- Cloud Icon -->
  <symbol id="icon-cloud" viewBox="0 0 24 24">
    <path fill="currentColor" d="M19.35 10.04C18.67 6.59 15.64 4 12 4 9.11 4 6.6 5.64 5.35 8.04 2.34 8.36 0 10.91 0 14c0 3.31 2.69 6 6 6h13c2.76 0 5-2.24 5-5 0-2.64-2.05-4.78-4.65-4.96z"/>
  </symbol>
  
  <!-- Database Icon -->
  <symbol id="icon-database" viewBox="0 0 24 24">
    <path fill="currentColor" d="M12 3C7.58 3 4 4.79 4 7s3.58 4 8 4 8-1.79 8-4-3.58-4-8-4zM4 9v3c0 2.21 3.58 4 8 4s8-1.79 8-4V9c0 2.21-3.58 4-8 4s-8-1.79-8-4zm0 5v3c0 2.21 3.58 4 8 4s8-1.79 8-4v-3c0 2.21-3.58 4-8 4s-8-1.79-8-4z"/>
  </symbol>
  
  <!-- Tools Icon -->
  <symbol id="icon-tools" viewBox="0 0 24 24">
    <path fill="currentColor" d="M22.7 19l-9.1-9.1c.9-2.3.4-5-1.5-6.9-2-2-5-2.4-7.4-1.3L9 6 6 9 1.6 4.7C.4 7.1.9 10.1 2.9 12.1c1.9 1.9 4.6 2.4 6.9 1.5l9.1 9.1c.4.4 1 .4 1.4 0l2.3-2.3c.5-.4.5-1.1.1-1.4z"/>
  </symbol>
  
  <!-- Gear Icon -->
  <symbol id="icon-gear" viewBox="0 0 24 24">
    <path fill="currentColor" d="M19.14,12.94c0.04-0.3,0.06-0.61,0.06-0.94c0-0.32-0.02-0.64-0.07-0.94l2.03-1.58c0.18-0.14,0.23-0.41,0.12-0.61 l-1.92-3.32c-0.12-0.22-0.37-0.29-0.59-0.22l-2.39,0.96c-0.5-0.38-1.03-0.7-1.62-0.94L14.4,2.81c-0.04-0.24-0.24-0.41-0.48-0.41 h-3.84c-0.24,0-0.43,0.17-0.47,0.41L9.25,5.35C8.66,5.59,8.12,5.92,7.63,6.29L5.24,5.33c-0.22-0.08-0.47,0-0.59,0.22L2.74,8.87 C2.62,9.08,2.66,9.34,2.86,9.48l2.03,1.58C4.84,11.36,4.8,11.69,4.8,12s0.02,0.64,0.07,0.94l-2.03,1.58 c-0.18,0.14-0.23,0.41-0.12,0.61l1.92,3.32c0.12,0.22,0.37,0.29,0.59,0.22l2.39-0.96c0.5,0.38,1.03,0.7,1.62,0.94l0.36,2.54 c0.05,0.24,0.24,0.41,0.48,0.41h3.84c0.24,0,0.44-0.17,0.47-0.41l0.36-2.54c0.59-0.24,1.13-0.56,1.62-0.94l2.39,0.96 c0.22,0.08,0.47,0,0.59-0.22l1.92-3.32c0.12-0.22,0.07-0.47-0.12-0.61L19.14,12.94z M12,15.6c-1.98,0-3.6-1.62-3.6-3.6 s1.62-3.6,3.6-3.6s3.6,1.62,3.6,3.6S13.98,15.6,12,15.6z"/>
  </symbol>
  
  <!-- Network Icon -->
  <symbol id="icon-network" viewBox="0 0 24 24">
    <path fill="currentColor" d="M17 3H7c-1.1 0-1.99.9-1.99 2L5 21l7-3 7 3V5c0-1.1-.9-2-2-2z"/>
  </symbol>
  
  <!-- Server Icon -->
  <symbol id="icon-server" viewBox="0 0 24 24">
    <path fill="currentColor" d="M4 1h16c1.1 0 2 .9 2 2v6c0 1.1-.9 2-2 2H4c-1.1 0-2-.9-2-2V3c0-1.1.9-2 2-2zm0 10h16c1.1 0 2 .9 2 2v6c0 1.1-.9 2-2 2H4c-1.1 0-2-.9-2-2v-6c0-1.1.9-2 2-2z"/>
  </symbol>
  
  <!-- Headset Icon -->
  <symbol id="icon-headset" viewBox="0 0 24 24">
    <path fill="currentColor" d="M12 1c-4.97 0-9 4.03-9 9v7c0 1.66 1.34 3 3 3h3v-8H5v-2c0-3.87 3.13-7 7-7s7 3.13 7 7v2h-4v8h3c1.66 0 3-1.34 3-3v-7c0-4.97-4.03-9-9-9z"/>
  </symbol>
  
  <!-- AWS Icon -->
  <symbol id="icon-aws" viewBox="0 0 24 24">
    <path fill="currentColor" d="M8.5 10.5c-.1 0-.2.1-.2.2v2.6c0 .1.1.2.2.2h1.5c.1 0 .2-.1.2-.2v-2.6c0-.1-.1-.2-.2-.2H8.5zm-3 0c-.1 0-.2.1-.2.2v2.6c0 .1.1.2.2.2h1.5c.1 0 .2-.1.2-.2v-2.6c0-.1-.1-.2-.2-.2H5.5zm6 0c-.1 0-.2.1-.2.2v2.6c0 .1.1.2.2.2h1.5c.1 0 .2-.1.2-.2v-2.6c0-.1-.1-.2-.2-.2h-1.5z"/>
  </symbol>
  
  <!-- Python Icon -->
  <symbol id="icon-python" viewBox="0 0 24 24">
    <path fill="currentColor" d="M12 2C6.48 2 2 6.48 2 12s4.48 10 10 10 10-4.48 10-10S17.52 2 12 2zm-2 15l-5-5 1.41-1.41L10 14.17l7.59-7.59L19 8l-9 9z"/>
  </symbol>
  
  <!-- HTML5 Icon -->
  <symbol id="icon-html5" viewBox="0 0 24 24">
    <path fill="currentColor" d="M12 17.27L18.18 21l-1.64-7.03L22 9.24l-7.19-.61L12 2 9.19 8.63 2 9.24l5.46 4.73L5.82 21z"/>
  </symbol>
  
  <!-- JavaScript Icon -->
  <symbol id="icon-js" viewBox="0 0 24 24">
    <path fill="currentColor" d="M3 3h18v18H3V3zm16.525 13.707c-.131-.821-.666-1.511-2.252-2.155-.552-.259-1.165-.438-1.349-.854-.068-.248-.078-.382-.034-.529.113-.484.687-.629 1.137-.495.293.09.563.315.732.676.775-.507.775-.507 1.316-.844-.203-.315-.304-.451-.439-.586-.473-.528-1.103-.798-2.126-.775l-.528.067c-.507.124-.991.395-1.283.754-.855.968-.611 2.655.427 3.354 1.023.765 2.521.933 2.712 1.653.18.878-.652 1.159-1.475 1.058-.607-.136-.945-.439-1.316-1.002l-1.372.788c.157.359.337.517.607.832 1.305 1.316 4.568 1.249 5.153-.754.021-.067.18-.528.056-1.237l.034.049zm-6.737-5.434h-1.686c0 1.453-.007 2.898-.007 4.354 0 .924.047 1.772-.104 2.033-.247.517-.886.451-1.175.359-.297-.146-.448-.349-.623-.641-.047-.078-.082-.146-.095-.146l-1.368.844c.229.473.563.832.994 1.089.641.383 1.502.507 2.404.305.588-.17 1.095-.519 1.358-1.059.384-.697.302-1.553.299-2.509.008-1.541 0-3.083 0-4.635l.003-.04z"/>
  </symbol>
</svg>
